# xmcd CD database file generated by freedbAccess_ocx
#
# Track frame offsets:
#       150
#       11746
#       25950
#       35659
#       46805
#       62288
#       79217
#       92349
#       107188
#       119691
#       130648
#       145878
#       158202
#       169439
#       184966
#
# Disc length: 2613 seconds
#
# Revision: 0
# Processed by: cddbd v1.4PL0 Copyright (c) Steve Scherf et al.
# Submitted via: CDnGo 2.00
#
DISCID=c90a330f
DTITLE=Nostalgie - Nostalgicky balon
DYEAR=2003
DGENRE=Country
TTITLE0=Nostalgicky balon
TTITLE1=Loudava pisen
TTITLE2=Drahy strycku Same
TTITLE3=Nekonecna cesta
TTITLE4=Trampska hvezda
TTITLE5=Posazavska stezka
TTITLE6=Ta druha
TTITLE7=Rio Grande
TTITLE8=Kufr smutku
TTITLE9=Kazdy novy den
TTITLE10=Nad rekou
TTITLE11=Cerny pramen
TTITLE12=Sneni
TTITLE13=Zbyl mi v dlanich jen snih
TTITLE14=Vlacek
EXTD=
EXTT0=
EXTT1=
EXTT2=
EXTT3=
EXTT4=
EXTT5=
EXTT6=
EXTT7=
EXTT8=
EXTT9=
EXTT10=
EXTT11=
EXTT12=
EXTT13=
EXTT14=
PLAYORDER=
